<svg width="209" height="209" viewBox="0 0 209 209" fill="none" xmlns="http://www.w3.org/2000/svg">
<g id="bx-link-alt.svg">
<path id="Vector" d="M36.7649 172.233C40.8044 176.278 45.6035 179.486 50.8864 181.671C56.1693 183.855 61.8319 184.975 67.5488 184.965C73.267 184.975 78.9308 183.855 84.215 181.67C89.4993 179.485 94.3 176.278 98.3415 172.233L122.969 147.597L110.655 135.284L86.0279 159.919C81.1205 164.805 74.4778 167.548 67.5532 167.548C60.6286 167.548 53.9858 164.805 49.0784 159.919C44.1887 155.014 41.443 148.371 41.443 141.445C41.443 134.519 44.1887 127.875 49.0784 122.97L73.7143 98.3428L61.4007 86.0292L36.7649 110.656C28.6122 118.829 24.0337 129.901 24.0337 141.445C24.0337 152.988 28.6122 164.061 36.7649 172.233ZM172.232 98.3428C180.38 90.1682 184.956 79.0967 184.956 67.5545C184.956 56.0123 180.38 44.9409 172.232 36.7662C164.059 28.6135 152.987 24.035 141.443 24.035C129.9 24.035 118.827 28.6135 110.655 36.7662L86.0279 61.4021L98.3415 73.7157L122.969 49.0798C127.876 44.1943 134.519 41.4515 141.443 41.4515C148.368 41.4515 155.011 44.1943 159.918 49.0798C164.808 53.9849 167.554 60.6285 167.554 67.5545C167.554 74.4805 164.808 81.1241 159.918 86.0292L135.282 110.656L147.596 122.97L172.232 98.3428Z" fill="#DFD9C9"/>
<path id="Vector_2" d="M73.7066 147.607L61.3843 135.293L135.292 61.394L147.605 73.7163L73.7066 147.607Z" fill="#DFD9C9"/>
</g>
</svg>
