<svg width="33" height="33" viewBox="0 0 33 33" fill="none" xmlns="http://www.w3.org/2000/svg">
<rect width="33" height="33" rx="5.73913" fill="#E0AD25"/>
<path d="M7.77148 21.0744C7.77148 21.6229 8.2172 22.1029 8.80006 22.1029H13.6001C13.6001 22.9258 13.5315 23.0287 12.9486 23.5772H12.2629C12.0915 23.5772 11.9201 23.7487 11.9201 23.9201C11.9201 24.0915 12.0915 24.2629 12.2629 24.2629H19.7715C19.9429 24.2629 20.1143 24.0915 20.1143 23.9201C20.1143 23.7487 19.9429 23.5772 19.7715 23.5772H19.0858C18.5372 23.0287 18.4686 22.9601 18.4343 22.1029H23.2343C23.8172 22.1029 24.2629 21.6229 24.2629 21.0744V20.3887H7.77148V21.0744ZM17.1315 16.2401H21.4172C21.9315 16.2401 22.3429 15.8287 22.3429 15.3144V14.6287H16.1715V15.3144C16.2058 15.7944 16.6172 16.2401 17.1315 16.2401Z" fill="white"/>
<path d="M23.2001 9.17725H23.0629V15.2801C23.0629 16.1715 22.3429 16.8915 21.4515 16.8915H17.1315C16.2401 16.8915 15.5201 16.1715 15.5201 15.2801V9.17725H8.80006C8.2172 9.17725 7.77148 9.62296 7.77148 10.2058V19.6687H24.2286V10.2058C24.2286 9.65725 23.7829 9.17725 23.2001 9.17725ZM15.2458 15.7601C14.9029 16.9944 13.8401 17.8515 12.5372 17.9544H12.3315C11.4401 17.9544 10.6515 17.5772 10.1029 16.9601L10.0343 17.4744C10.0001 17.6458 9.86291 17.783 9.69148 17.783H9.6572C9.48577 17.7487 9.34863 17.5772 9.34863 17.4058L9.55434 15.9658C9.58863 15.7944 9.76006 15.6572 9.93148 15.6572L11.3715 15.863C11.5429 15.8972 11.6801 16.0687 11.6801 16.2401C11.6458 16.4115 11.4743 16.5487 11.3029 16.5487L10.5143 16.4115C11.0629 17.0972 11.8515 17.303 12.5029 17.2687C13.2915 17.2001 14.2858 16.7544 14.5943 15.5544C14.6286 15.383 14.8343 15.2801 15.0058 15.3144C15.2115 15.383 15.3143 15.5887 15.2458 15.7601ZM15.1429 13.9772C15.1429 14.0801 15.0743 14.1487 15.0058 14.2172C14.9372 14.2515 14.8686 14.2858 14.8001 14.2858H14.7315L13.2915 14.0458C13.1201 14.0115 12.9829 13.8401 13.0172 13.6687C13.0515 13.4972 13.2229 13.3601 13.3943 13.3944L14.1486 13.4972C13.6001 12.8115 12.8115 12.6058 12.1601 12.6401C11.3715 12.7087 10.3772 13.1887 10.0686 14.3544C10.0343 14.4915 9.8972 14.5944 9.72577 14.5944H9.62291C9.45148 14.5601 9.34863 14.3544 9.38291 14.183C9.72577 12.9144 10.7886 12.0572 12.0915 11.9544C13.0515 11.8858 13.9772 12.263 14.5943 12.9487L14.6629 12.4344C14.6972 12.263 14.8686 12.1258 15.0401 12.1601C15.2115 12.1944 15.3486 12.3658 15.3143 12.5372L15.1429 13.9772Z" fill="white"/>
<path d="M22.3772 8.6972C22.3772 8.18291 21.9658 7.77148 21.4515 7.77148H17.1315C16.6172 7.77148 16.2058 8.18291 16.2058 8.6972V13.9086H22.3772V8.6972ZM20.5601 11.4401L19.0858 12.8801C19.0172 12.9486 18.9487 12.9829 18.8458 12.9829C18.743 12.9829 18.6744 12.9486 18.6058 12.8801L17.9887 12.2629C17.8515 12.1258 17.8515 11.9201 17.9887 11.7829C18.1258 11.6458 18.3315 11.6458 18.4687 11.7829L18.8458 12.1601L20.0801 10.9258C20.2172 10.7886 20.423 10.7886 20.5601 10.9258C20.6972 11.0629 20.6972 11.3029 20.5601 11.4401Z" fill="white"/>
</svg>
