<svg width="33" height="33" viewBox="0 0 33 33" fill="none" xmlns="http://www.w3.org/2000/svg">
<rect width="33" height="33" rx="5.73913" fill="#E0AD25"/>
<path d="M24.6458 9.79163C24.6458 8.99621 24.0037 8.35413 23.2083 8.35413H21.2916C20.4962 8.35413 19.8541 8.99621 19.8541 9.79163V10.2708H10.75C10.1145 10.2708 9.50516 10.5232 9.05585 10.9725C8.60654 11.4218 8.35413 12.0312 8.35413 12.6666V20.3333C8.35413 20.9687 8.60654 21.5781 9.05585 22.0274C9.50516 22.4767 10.1145 22.7291 10.75 22.7291H19.8541V23.2083C19.8541 24.0037 20.4962 24.6458 21.2916 24.6458H23.2083C24.0037 24.6458 24.6458 24.0037 24.6458 23.2083V9.79163ZM13.1458 21.7804C13.0213 21.8073 12.8913 21.7843 12.7837 21.7161C12.6761 21.648 12.5996 21.5403 12.5708 21.4162C12.4108 20.7046 12.052 20.0531 11.5363 19.5374C11.0206 19.0216 10.369 18.6629 9.65746 18.5029C9.53904 18.4692 9.43801 18.3914 9.3751 18.2856C9.31219 18.1797 9.29217 18.0538 9.31914 17.9337C9.34611 17.8135 9.41802 17.7083 9.52014 17.6395C9.62225 17.5707 9.74682 17.5436 9.86829 17.5637C10.758 17.7632 11.5727 18.2115 12.2175 18.8562C12.8622 19.501 13.3105 20.3157 13.51 21.2054C13.5675 21.4641 13.4045 21.7229 13.1458 21.7804ZM13.51 11.785C13.3105 12.6747 12.8622 13.4894 12.2175 14.1341C11.5727 14.7789 10.758 15.2271 9.86829 15.4266C9.74383 15.4536 9.61376 15.4305 9.50617 15.3624C9.39858 15.2942 9.32212 15.1865 9.29329 15.0625C9.23579 14.8037 9.39871 14.545 9.65746 14.4875C10.369 14.3274 11.0206 13.9687 11.5363 13.453C12.052 12.9372 12.4108 12.2857 12.5708 11.5741C12.6045 11.4557 12.6823 11.3547 12.7881 11.2918C12.894 11.2289 13.0199 11.2088 13.14 11.2358C13.2601 11.2628 13.3654 11.3347 13.4342 11.4368C13.503 11.5389 13.5301 11.6635 13.51 11.785ZM19.7104 18.752C19.5187 18.9437 19.2216 18.9437 19.03 18.752C18.8383 18.5604 18.8383 18.2633 19.03 18.0716L20.132 16.9695H15.5416C15.2733 16.9695 15.0625 16.7587 15.0625 16.4904C15.0625 16.222 15.2733 16.0112 15.5416 16.0112H20.132L19.03 14.9091C18.8383 14.7175 18.8383 14.4204 19.03 14.2287C19.2216 14.037 19.5187 14.037 19.7104 14.2287L21.627 16.1454C21.8091 16.3275 21.8187 16.6341 21.627 16.8258L19.7104 18.7425V18.752ZM23.6875 23.2083C23.6875 23.4766 23.4766 23.6875 23.2083 23.6875H21.2916C21.0233 23.6875 20.8125 23.4766 20.8125 23.2083V22.7291H23.6875V23.2083ZM23.6875 10.2708H20.8125V9.79163C20.8125 9.52329 21.0233 9.31246 21.2916 9.31246H23.2083C23.4766 9.31246 23.6875 9.52329 23.6875 9.79163V10.2708Z" fill="white"/>
</svg>
