<svg width="10" height="16" viewBox="0 0 10 16" fill="none" xmlns="http://www.w3.org/2000/svg">
<g id="svgexport-7 (12) 2" clip-path="url(#clip0_4751_10350)">
<g id="Group">
<path id="Vector" d="M5.53247 14.5591L4.61356 14.5576L4.62964 4.44955L5.54856 4.45101L5.53247 14.5591Z" fill="#6B7280"/>
<g id="Group_2">
<path id="Vector_2" d="M6.918 12.7351C7.09834 12.9142 7.0992 13.2051 6.92022 13.3853L5.09462 15.2235L3.27531 13.3795C3.0969 13.1987 3.09917 12.9078 3.27959 12.7293C3.46035 12.5509 3.75122 12.5532 3.92917 12.7336L5.09624 13.9168L6.26741 12.7373C6.4474 12.557 6.73815 12.5562 6.918 12.7351ZM5.55011 3.53233L4.63119 3.53086L4.63266 2.61195L5.55157 2.61341L5.55011 3.53233ZM5.55303 1.69449L4.63412 1.69303L4.63558 0.774116L5.5545 0.775579L5.55303 1.69449Z" fill="#6B7280"/>
</g>
</g>
</g>
<defs>
<clipPath id="clip0_4751_10350">
<rect width="8.49998" height="14.7027" fill="white" transform="translate(9.01172 15.4834) rotate(-179.909)"/>
</clipPath>
</defs>
</svg>
