<svg width="244" height="244" viewBox="0 0 244 244" fill="none" xmlns="http://www.w3.org/2000/svg">
<g id="svgexport-17 (2) 1">
<g id="Group">
<path id="Vector" d="M122 0C77.1531 0 40.666 36.4871 40.666 81.3335C40.666 94.7964 44.032 108.145 50.4308 119.985L117.552 241.379C118.445 242.997 120.148 244 122 244C123.851 244 125.554 242.997 126.447 241.379L193.593 119.945C199.967 108.145 203.333 94.7959 203.333 81.333C203.333 36.4871 166.846 0 122 0ZM122 122C99.5763 122 81.333 103.757 81.333 81.3335C81.333 58.9103 99.5763 40.667 122 40.667C144.423 40.667 162.666 58.9103 162.666 81.3335C162.666 103.757 144.423 122 122 122Z" fill="#DFD9C9"/>
</g>
</g>
</svg>
