<svg width="96" height="83" viewBox="0 0 96 83" fill="none" xmlns="http://www.w3.org/2000/svg">
<path d="M87.6463 73.3562H6.66874C4.28705 73.3562 1.90536 75.7378 1.90536 78.1195C1.90536 80.5012 4.28705 82.8829 6.66874 82.8829H87.6463C90.028 82.8829 92.4097 80.5012 92.4097 78.1195C92.4097 75.7378 90.028 73.3562 87.6463 73.3562ZM95.2677 28.5803C94.315 24.7696 90.5043 22.3879 86.6936 23.3406L61.4477 30.0093L30.4857 1.42902C29.0567 -2.8392e-07 27.1513 0 25.7223 0C22.3879 0.952677 20.9589 4.76339 22.3879 7.62142L38.5834 36.2017L14.7665 42.3941L7.62142 36.6781C6.1924 35.7254 4.76339 35.2491 3.33437 35.7254L1.90536 36.2017C7.098e-07 36.6781 -0.476339 38.5834 0.476338 40.0124L9.52677 55.7316C10.4794 57.637 12.8611 58.5896 14.7665 58.1133L90.028 38.1071C93.8387 36.2017 96.2204 32.391 95.2677 28.5803Z" fill="#6B7280"/>
</svg>
