<svg width="33" height="33" viewBox="0 0 33 33" fill="none" xmlns="http://www.w3.org/2000/svg">
<rect width="33" height="33" rx="5.73913" fill="#E0AD25"/>
<path fill-rule="evenodd" clip-rule="evenodd" d="M8.95614 9.29874H23.9688C24.8731 9.29874 25.6159 10.0369 25.6159 10.9458V13.2895H22.3264C21.6482 13.2895 21.0946 13.8431 21.0946 14.5213V17.1142C21.0946 17.7924 21.6482 18.346 22.3264 18.346H25.6159V21.0173C25.6159 21.9216 24.8777 22.6644 23.9688 22.6644H8.95614C8.05187 22.6644 7.30908 21.9262 7.30908 21.0173V10.9412C7.30908 10.0369 8.04726 9.29413 8.95614 9.29413V9.29874ZM11.6136 15.4256L12.3056 14.7336L13.9342 16.3622L16.7485 13.5479C16.0703 12.7774 15.0784 12.2884 13.9711 12.2884C11.9319 12.2884 10.2802 13.94 10.2802 15.9792C10.2802 18.0185 11.9319 19.6701 13.9711 19.6701C16.0104 19.6701 17.662 18.0185 17.662 15.9792C17.662 15.4072 17.5328 14.8628 17.2975 14.3783L14.6217 17.0542L13.9296 17.7463L13.2376 17.0542L11.609 15.4256H11.6136ZM22.5709 13.6724H25.519C26.0957 13.6724 26.5663 14.143 26.5663 14.7197V16.9204C26.5663 17.4971 26.0957 17.9677 25.519 17.9677H22.5709C21.9942 17.9677 21.5236 17.4971 21.5236 16.9204V14.7197C21.5236 14.143 21.9942 13.6724 22.5709 13.6724ZM23.143 15.0796C23.5536 15.0796 23.8812 15.4118 23.8812 15.8178C23.8812 16.2284 23.549 16.556 23.143 16.556C22.7324 16.556 22.4048 16.2238 22.4048 15.8178C22.4048 15.4072 22.737 15.0796 23.143 15.0796Z" fill="white"/>
</svg>
