<svg width="30" height="29" viewBox="0 0 30 29" fill="none" xmlns="http://www.w3.org/2000/svg">
<path d="M19.3362 28.4375H20.9999C21.1671 28.4374 21.3316 28.3915 21.4783 28.304C21.6251 28.2165 21.7495 28.0901 21.8401 27.9364C21.9306 27.7827 21.9845 27.6067 21.9969 27.4243C22.0092 27.242 21.9795 27.0591 21.9105 26.8926L17.8818 17.1685L23.9312 17.0215L26.1374 19.9452C26.558 20.5235 26.8937 20.7812 27.7499 20.7812H28.8699C29.0472 20.7875 29.2233 20.7469 29.3833 20.6629C29.5432 20.5789 29.6823 20.4539 29.7887 20.2986C29.9374 20.0792 30.0837 19.7073 29.9412 19.1769L28.7024 14.3233C28.693 14.2871 28.6818 14.2509 28.6693 14.2153C28.6687 14.2119 28.6687 14.2085 28.6693 14.2051C28.6822 14.1696 28.6933 14.1333 28.7024 14.0964L29.9424 9.21211C30.0768 8.69189 29.9299 8.32822 29.7824 8.11426C29.6834 7.97051 29.5549 7.85419 29.4072 7.77464C29.2596 7.69509 29.097 7.65454 28.9324 7.65625H27.7499C27.1105 7.65625 26.4899 7.97002 26.1249 8.47656L23.9643 11.3511L17.8818 11.2526L21.9093 1.54561C21.9783 1.37912 22.0081 1.19635 21.996 1.01402C21.9838 0.831685 21.93 0.655601 21.8395 0.501864C21.7491 0.348126 21.6248 0.22164 21.4782 0.133969C21.3315 0.0462975 21.1671 0.000237473 20.9999 0H19.318C19.0834 0.0051573 18.8528 0.0680599 18.6435 0.184037C18.4341 0.300014 18.2513 0.466086 18.1087 0.669922L10.293 11.0605L6.68241 10.9566C6.41804 10.9409 5.68554 10.9354 5.51616 10.9354C2.06241 10.9375 -8.58307e-05 12.1639 -8.58307e-05 14.2188C-8.58307e-05 14.8654 0.236164 16.0645 1.81679 16.8273C2.74991 17.2785 3.99491 17.5068 5.51741 17.5068C5.68491 17.5068 6.41554 17.5014 6.68366 17.4856L10.2937 17.3804L18.1287 27.771C18.2714 27.9739 18.4541 28.1392 18.6631 28.2546C18.8721 28.3699 19.1021 28.4324 19.3362 28.4375Z" fill="#E0AD25"/>
</svg>
