<svg width="83" height="79" viewBox="0 0 83 79" fill="none" xmlns="http://www.w3.org/2000/svg">
<path d="M78.4018 69.9172H4.91918C2.75793 69.9172 0.59668 72.0106 0.59668 74.104C0.59668 76.1974 2.75793 78.2908 4.91918 78.2908H78.4018C80.563 78.2908 82.7243 76.1974 82.7243 74.104C82.7243 72.0106 80.563 69.9172 78.4018 69.9172ZM4.91918 39.3533L73.2147 56.938C76.6727 57.7754 80.1308 55.682 80.9953 52.3325C81.8598 48.983 79.6985 45.6336 76.2405 44.7962L53.3312 38.9346L42.0927 3.76528C41.6605 2.09055 40.3637 1.25318 38.6347 0.834498C35.609 -0.00286834 32.5832 2.09055 32.5832 5.02133V33.9105L10.9707 28.4676L8.80944 20.0939C8.37719 18.8379 7.08044 18.0005 5.78368 17.5818H4.48693C3.19018 17.1631 1.89343 18.0005 1.89343 19.2565V35.1665C1.89343 36.8412 3.19018 38.516 4.91918 39.3533Z" fill="#6B7280"/>
</svg>
