<svg width="51" height="51" viewBox="0 0 51 51" fill="none" xmlns="http://www.w3.org/2000/svg">
<rect x="3.5" y="3.61279" width="44" height="44" rx="22" fill="#34C759"/>
<rect x="3.5" y="3.61279" width="44" height="44" rx="22" stroke="#AAF0C4" stroke-width="5.40323"/>
<g clip-path="url(#clip0_7939_8121)">
<path d="M20.7539 17.1401L20.7539 33.0308L22.3359 34.6128L23.3906 33.5581L24.4453 34.6128L25.5 33.5581L26.5547 34.6128L27.6094 33.5581L28.6641 34.6128L29.7187 33.5581L30.7734 34.6128L32.3555 33.0308L32.3555 19.2488C32.3555 17.7951 31.1725 16.6128 29.7187 16.6128L20.6632 16.6128C20.7234 16.7821 20.7541 16.9605 20.7539 17.1401ZM22.8633 20.8315L30.2461 20.8315L30.2461 21.8862L22.8633 21.8862L22.8633 20.8315ZM26.0273 26.105L26.0273 25.0503L29.1914 25.0503L29.1914 26.105L26.0273 26.105ZM29.1914 27.1597L29.1914 28.2144L26.0273 28.2144L26.0273 27.1597L29.1914 27.1597ZM26.0273 23.9956L26.0273 22.9409L29.1914 22.9409L29.1914 23.9956L26.0273 23.9956ZM23.918 26.105L23.918 25.0503L24.9727 25.0503L24.9727 26.105L23.918 26.105ZM24.9727 27.1597L24.9727 28.2144L23.918 28.2144L23.918 27.1597L24.9727 27.1597ZM23.918 23.9956L23.918 22.9409L24.9727 22.9409L24.9727 23.9956L23.918 23.9956ZM22.8633 29.269L30.2461 29.269L30.2461 30.3237L22.8633 30.3237L22.8633 29.269ZM19.6992 20.8315L19.6992 17.1401C19.6992 16.8489 19.4631 16.6128 19.1719 16.6128C18.8806 16.6128 18.6445 16.8489 18.6445 17.1401L18.6445 20.8315L19.6992 20.8315Z" fill="white"/>
</g>
<defs>
<clipPath id="clip0_7939_8121">
<rect width="18" height="18" fill="white" transform="translate(16.5 16.6128)"/>
</clipPath>
</defs>
</svg>
