<svg width="18" height="18" viewBox="0 0 18 18" fill="none" xmlns="http://www.w3.org/2000/svg">
<g clip-path="url(#clip0_7896_2992)">
<path d="M4.2539 0.527345L4.25391 16.418L5.83594 18L6.89062 16.9453L7.94531 18L9 16.9453L10.0547 18L11.1094 16.9453L12.1641 18L13.2187 16.9453L14.2734 18L15.8555 16.418L15.8555 2.63602C15.8555 1.18231 14.6725 1.03422e-07 13.2187 2.30509e-07L4.1632 1.02217e-06C4.2234 0.169293 4.25408 0.347667 4.2539 0.527345ZM6.36328 4.21875L13.7461 4.21875L13.7461 5.27344L6.36328 5.27344L6.36328 4.21875ZM9.52734 9.49219L9.52734 8.4375L12.6914 8.4375L12.6914 9.49219L9.52734 9.49219ZM12.6914 10.5469L12.6914 11.6016L9.52734 11.6016L9.52734 10.5469L12.6914 10.5469ZM9.52734 7.38281L9.52734 6.32813L12.6914 6.32813L12.6914 7.38281L9.52734 7.38281ZM7.41797 9.49219L7.41797 8.4375L8.47266 8.4375L8.47266 9.49219L7.41797 9.49219ZM8.47266 10.5469L8.47266 11.6016L7.41797 11.6016L7.41797 10.5469L8.47266 10.5469ZM7.41797 7.38281L7.41797 6.32813L8.47266 6.32813L8.47266 7.38281L7.41797 7.38281ZM6.36328 12.6563L13.7461 12.6563L13.7461 13.7109L6.36328 13.7109L6.36328 12.6563ZM3.19922 4.21875L3.19922 0.527345C3.19922 0.23611 2.96311 1.12709e-06 2.67187 1.15255e-06C2.38064 1.17801e-06 2.14453 0.236111 2.14453 0.527345L2.14453 4.21875L3.19922 4.21875Z" fill="#E0AD25"/>
</g>
<defs>
<clipPath id="clip0_7896_2992">
<rect width="18" height="18" fill="white"/>
</clipPath>
</defs>
</svg>
