<svg width="13" height="14" viewBox="0 0 13 14" fill="none" xmlns="http://www.w3.org/2000/svg">
<g id="heroicons-solid/map-pin">
<path id="Subtract" fill-rule="evenodd" clip-rule="evenodd" d="M6.2507 12.0443C6.26706 12.0538 6.27992 12.0611 6.28902 12.0662L6.30415 12.0747C6.42487 12.141 6.57462 12.1404 6.69546 12.0749L6.71098 12.0662C6.72008 12.0611 6.73294 12.0538 6.7493 12.0443C6.78202 12.0254 6.82878 11.9977 6.88756 11.9615C7.00508 11.8892 7.17099 11.7824 7.36916 11.6424C7.76484 11.3629 8.29278 10.9482 8.82188 10.4065C9.87495 9.32828 10.9688 7.70834 10.9688 5.625C10.9688 3.15698 8.96802 1.15625 6.5 1.15625C4.03198 1.15625 2.03125 3.15698 2.03125 5.625C2.03125 7.70834 3.12505 9.32828 4.17812 10.4065C4.70722 10.9482 5.23516 11.3629 5.63084 11.6424C5.82901 11.7824 5.99492 11.8892 6.11244 11.9615C6.17122 11.9977 6.21798 12.0254 6.2507 12.0443ZM6.5 7.25C7.39746 7.25 8.125 6.52246 8.125 5.625C8.125 4.72754 7.39746 4 6.5 4C5.60254 4 4.875 4.72754 4.875 5.625C4.875 6.52246 5.60254 7.25 6.5 7.25Z" fill="#E0AD25"/>
</g>
</svg>
