<svg width="34" height="20" viewBox="0 0 34 20" fill="none" xmlns="http://www.w3.org/2000/svg">
<g id="Group 427320563">
<path id="Vector" d="M31.1424 17.2345L22.0598 1.16698L3.81761 1.1592L3.20999 0H0V1.0764L0.594059 1.43411L0 1.74812V17.2329H2.06411C2.06863 16.8627 2.14552 16.5346 2.23146 16.1863C2.63102 14.585 4.22319 14.0819 5.0042 14.0819C5.93599 14.0819 6.91301 14.3053 7.65029 15.4426C7.95938 15.9191 8.1388 16.6768 8.15387 17.2329H24.3078C24.3546 16.5815 24.54 15.8675 24.9215 15.3473C25.6814 14.3131 26.5106 13.9726 27.7078 14.0772C28.151 14.1163 28.9743 14.2616 29.698 15.024C30.5318 15.9035 30.574 17.1361 30.5468 17.2329H31.1424V17.2345Z" fill="#E0AD25"/>
<path id="Vector_2" d="M2.35356 11.9903H0.00146484V11.5811H22.1547V11.9903H8.15534" fill="white"/>
<path id="Vector_3" d="M31.1418 17.2343C32.0811 17.2343 33.6612 17.2343 33.6612 17.2343C34.0955 16.0502 33.9884 13.5522 33.9884 13.5522C33.9507 13.3397 33.7592 13.0632 33.7592 13.0632L33.6733 13.0054L33.6296 12.9757C33.8376 11.7462 33.0491 11.4213 32.7958 11.1729C32.7822 11.1588 32.7626 11.1541 32.7475 11.1432C32.5093 10.9714 32.6043 11.0401 32.5998 11.037C32.0857 10.6589 31.2097 10.184 30.7181 9.9606C30.4814 9.8528 30.311 9.69814 30.1437 9.49349L29.2737 8.54834C28.3781 7.50789 27.1101 6.21125 27.1101 6.21125C27.7132 6.05191 27.6046 5.92383 27.6046 5.92383C27.1252 3.34615 26.7543 3.26648 26.7543 3.26648C25.6416 2.21041 24.0192 1.49021 24.0192 1.49021C23.7644 1.38554 22.5944 1.22619 22.1934 1.1762C22.1059 1.16526 22.0562 1.16838 22.0562 1.16838" fill="#E0AD25"/>
<path id="Vector_4" d="M5.12911 18.7389C5.92934 18.7389 6.57805 18.0668 6.57805 17.2376C6.57805 16.4085 5.92934 15.7363 5.12911 15.7363C4.32889 15.7363 3.68018 16.4085 3.68018 17.2376C3.68018 18.0668 4.32889 18.7389 5.12911 18.7389Z" fill="white" stroke="white" stroke-width="0.781042" stroke-miterlimit="10"/>
<path id="Vector_5" fill-rule="evenodd" clip-rule="evenodd" d="M2.46387 17.2341C2.46387 18.7619 3.65949 19.9992 5.12803 19.9992C6.6026 19.9992 7.79675 18.7025 7.79675 17.1747C7.79675 15.6531 6.6011 14.4736 5.12803 14.4736C3.65799 14.4736 2.46387 15.7125 2.46387 17.2341Z" fill="#E0AD25"/>
<path id="Vector_6" d="M5.12911 18.7389C5.92934 18.7389 6.57805 18.0668 6.57805 17.2376C6.57805 16.4085 5.92934 15.7363 5.12911 15.7363C4.32889 15.7363 3.68018 16.4085 3.68018 17.2376C3.68018 18.0668 4.32889 18.7389 5.12911 18.7389Z" stroke="white" stroke-width="0.260347" stroke-miterlimit="10"/>
<path id="Vector_7" d="M5.12935 17.6098C5.32753 17.6098 5.48819 17.4434 5.48819 17.238C5.48819 17.0327 5.32753 16.8662 5.12935 16.8662C4.93117 16.8662 4.77051 17.0327 4.77051 17.238C4.77051 17.4434 4.93117 17.6098 5.12935 17.6098Z" fill="white"/>
<path id="Vector_8" d="M6.20966 3.77539H2.58203V8.77452H6.20966V3.77539Z" fill="white"/>
<path id="Vector_9" d="M22.5596 17.2355H22.1631V1.16797L22.442 1.20546L22.5596 1.22423V17.2355Z" fill="white"/>
<path id="Vector_10" d="M32.9224 12.8326C32.7566 13.1294 32.0886 12.8435 31.4463 12.4592C30.804 12.0749 30.4874 11.7094 30.5221 11.3485C30.5402 11.1626 30.8116 10.986 31.1116 11.0345C31.3619 11.0751 31.6936 11.3329 31.9846 11.5078C32.3857 11.7484 32.8124 12.028 32.942 12.2952C33.0189 12.4561 32.9842 12.7201 32.9224 12.8326Z" fill="white"/>
<path id="Vector_11" d="M27.1131 6.47467H22.2446V5.96386H27.1131L27.6077 5.9248C27.6077 5.9248 27.6137 5.9326 27.6152 5.94666C27.6167 5.96072 27.6107 5.97948 27.5926 6.00292C27.5835 6.01385 27.567 6.02791 27.5474 6.04197C27.5293 6.05447 27.5082 6.06696 27.4916 6.07634C27.4584 6.09352 27.4433 6.09976 27.4313 6.10601C27.3936 6.12476 27.3182 6.15287 27.2488 6.17474C27.178 6.19661 27.1131 6.21223 27.1131 6.21223L27.3664 6.47311H27.1131V6.47467Z" fill="white"/>
<path id="Vector_12" d="M31.7361 10.4894H22.5615V10.0723H30.9536L31.136 10.1645L31.314 10.2566L31.5552 10.3878L31.7361 10.4894Z" fill="white"/>
<path id="Vector_13" d="M30.3702 9.92737H22.7485V6.72949H27.3758L30.3702 9.92737Z" fill="white"/>
<path id="Vector_14" d="M27.3357 18.6969C28.1359 18.6969 28.7846 18.0248 28.7846 17.1957C28.7846 16.3665 28.1359 15.6943 27.3357 15.6943C26.5354 15.6943 25.8867 16.3665 25.8867 17.1957C25.8867 18.0248 26.5354 18.6969 27.3357 18.6969Z" fill="white" stroke="white" stroke-width="0.781042" stroke-miterlimit="10"/>
<path id="Vector_15" fill-rule="evenodd" clip-rule="evenodd" d="M24.6689 17.1931C24.6689 18.7209 25.8646 19.9582 27.3331 19.9582C28.8077 19.9582 30.0018 18.6616 30.0018 17.1337C30.0018 15.6121 28.8062 14.4326 27.3331 14.4326C25.8646 14.4326 24.6689 15.6715 24.6689 17.1931Z" fill="#E0AD25"/>
<path id="Vector_16" d="M27.3357 18.6969C28.1359 18.6969 28.7846 18.0248 28.7846 17.1957C28.7846 16.3665 28.1359 15.6943 27.3357 15.6943C26.5354 15.6943 25.8867 16.3665 25.8867 17.1957C25.8867 18.0248 26.5354 18.6969 27.3357 18.6969Z" stroke="white" stroke-width="0.260347" stroke-miterlimit="10"/>
<path id="Vector_17" d="M27.3364 17.5669C27.5346 17.5669 27.6952 17.4004 27.6952 17.1951C27.6952 16.9897 27.5346 16.8232 27.3364 16.8232C27.1382 16.8232 26.9775 16.9897 26.9775 17.1951C26.9775 17.4004 27.1382 17.5669 27.3364 17.5669Z" fill="white"/>
</g>
</svg>
