<svg width="39" height="22" viewBox="0 0 39 22" fill="none" xmlns="http://www.w3.org/2000/svg">
<g id="Group 427320568">
<path id="Vector" d="M35.2648 18.9583L24.9799 1.2837L4.32296 1.27514L3.6349 0H0V1.18406L0.672697 1.57755L0 1.92297V18.9566H2.33734C2.34246 18.5493 2.42953 18.1884 2.52685 17.8052C2.97929 16.0438 4.78223 15.4904 5.66663 15.4904C6.72175 15.4904 7.82811 15.7362 8.66299 16.9872C9.01299 17.5113 9.21616 18.3448 9.23323 18.9566H27.5255C27.5785 18.24 27.7884 17.4546 28.2204 16.8824C29.0809 15.7447 30.0199 15.3701 31.3755 15.4853C31.8775 15.5282 32.8097 15.688 33.6292 16.5267C34.5734 17.4942 34.6212 18.85 34.5904 18.9566H35.2648V18.9583Z" fill="#6B7280"/>
<path id="Vector_2" d="M2.6654 13.1895H0.00195312V12.7393H25.0877V13.1895H9.23519" fill="white"/>
<path id="Vector_3" d="M35.2644 18.9585C36.3281 18.9585 38.1174 18.9585 38.1174 18.9585C38.6091 17.6559 38.4879 14.908 38.4879 14.908C38.4452 14.6743 38.2283 14.3702 38.2283 14.3702L38.131 14.3065L38.0815 14.2739C38.3171 12.9215 37.4242 12.564 37.1374 12.2908C37.122 12.2753 37.0998 12.2702 37.0827 12.2581C36.813 12.0691 36.9205 12.1447 36.9154 12.1413C36.3332 11.7254 35.3413 11.203 34.7847 10.9572C34.5166 10.8387 34.3237 10.6685 34.1342 10.4434L33.149 9.40371C32.1349 8.2592 30.699 6.83287 30.699 6.83287C31.382 6.65759 31.259 6.5167 31.259 6.5167C30.7161 3.6812 30.2961 3.59356 30.2961 3.59356C29.0361 2.43187 27.199 1.63963 27.199 1.63963C26.9105 1.52449 25.5856 1.3492 25.1314 1.29421C25.0324 1.28218 24.9761 1.28561 24.9761 1.28561" fill="#6B7280"/>
<path id="Vector_4" d="M5.80773 20.6135C6.71389 20.6135 7.44847 19.8741 7.44847 18.962C7.44847 18.0499 6.71389 17.3105 5.80773 17.3105C4.90157 17.3105 4.16699 18.0499 4.16699 18.962C4.16699 19.8741 4.90157 20.6135 5.80773 20.6135Z" fill="white" stroke="white" stroke-width="0.781042" stroke-miterlimit="10"/>
<path id="Vector_5" fill-rule="evenodd" clip-rule="evenodd" d="M2.79004 18.9574C2.79004 20.6381 4.14394 21.9991 5.80687 21.9991C7.47664 21.9991 8.82885 20.5728 8.82885 18.8921C8.82885 17.2183 7.47493 15.9209 5.80687 15.9209C4.14223 15.9209 2.79004 17.2836 2.79004 18.9574Z" fill="#6B7280"/>
<path id="Vector_6" d="M5.80773 20.6135C6.71389 20.6135 7.44847 19.8741 7.44847 18.962C7.44847 18.0499 6.71389 17.3105 5.80773 17.3105C4.90157 17.3105 4.16699 18.0499 4.16699 18.962C4.16699 19.8741 4.90157 20.6135 5.80773 20.6135Z" stroke="white" stroke-width="0.260347" stroke-miterlimit="10"/>
<path id="Vector_7" d="M5.8082 19.3707C6.03262 19.3707 6.21454 19.1876 6.21454 18.9618C6.21454 18.7359 6.03262 18.5527 5.8082 18.5527C5.58378 18.5527 5.40186 18.7359 5.40186 18.9618C5.40186 19.1876 5.58378 19.3707 5.8082 19.3707Z" fill="white"/>
<path id="Vector_8" d="M7.03166 4.15332H2.92383V9.65246H7.03166V4.15332Z" fill="white"/>
<path id="Vector_9" d="M25.5457 18.9598H25.0967V1.28516L25.4126 1.3264L25.5457 1.34704V18.9598Z" fill="white"/>
<path id="Vector_10" d="M37.2806 14.1158C37.0927 14.4423 36.3364 14.1278 35.6091 13.7051C34.8818 13.2823 34.5232 12.8802 34.5625 12.4832C34.583 12.2787 34.8903 12.0846 35.2301 12.1378C35.5135 12.1825 35.8891 12.4661 36.2186 12.6585C36.6727 12.9232 37.1559 13.2308 37.3027 13.5246C37.3898 13.7016 37.3506 13.9921 37.2806 14.1158Z" fill="white"/>
<path id="Vector_11" d="M30.7024 7.12245H25.1895V6.56054H30.7024L31.2624 6.51758C31.2624 6.51758 31.2692 6.52615 31.2709 6.54162C31.2727 6.55708 31.2658 6.57772 31.2453 6.6035C31.2351 6.61553 31.2163 6.631 31.1941 6.64646C31.1736 6.66021 31.1497 6.67395 31.131 6.68427C31.0934 6.70317 31.0763 6.71003 31.0627 6.71691C31.02 6.73753 30.9346 6.76845 30.8561 6.79251C30.7758 6.81657 30.7024 6.83375 30.7024 6.83375L30.9892 7.12072H30.7024V7.12245Z" fill="white"/>
<path id="Vector_12" d="M35.9369 11.5389H25.5479V11.0801H35.0508L35.2574 11.1815L35.4589 11.2829L35.7321 11.4272L35.9369 11.5389Z" fill="white"/>
<path id="Vector_13" d="M34.3903 10.9201H25.7598V7.40234H30.9996L34.3903 10.9201Z" fill="white"/>
<path id="Vector_14" d="M30.9542 20.5666C31.8604 20.5666 32.595 19.8272 32.595 18.9152C32.595 18.0031 31.8604 17.2637 30.9542 17.2637C30.0481 17.2637 29.3135 18.0031 29.3135 18.9152C29.3135 19.8272 30.0481 20.5666 30.9542 20.5666Z" fill="white" stroke="white" stroke-width="0.781042" stroke-miterlimit="10"/>
<path id="Vector_15" fill-rule="evenodd" clip-rule="evenodd" d="M27.9346 18.9125C27.9346 20.5932 29.2885 21.9542 30.9514 21.9542C32.6212 21.9542 33.9734 20.5279 33.9734 18.8472C33.9734 17.1734 32.6195 15.876 30.9514 15.876C29.2885 15.876 27.9346 17.2387 27.9346 18.9125Z" fill="#6B7280"/>
<path id="Vector_16" d="M30.9542 20.5666C31.8604 20.5666 32.595 19.8272 32.595 18.9152C32.595 18.0031 31.8604 17.2637 30.9542 17.2637C30.0481 17.2637 29.3135 18.0031 29.3135 18.9152C29.3135 19.8272 30.0481 20.5666 30.9542 20.5666Z" stroke="white" stroke-width="0.260347" stroke-miterlimit="10"/>
<path id="Vector_17" d="M30.9552 19.3239C31.1796 19.3239 31.3615 19.1408 31.3615 18.9149C31.3615 18.689 31.1796 18.5059 30.9552 18.5059C30.7308 18.5059 30.5488 18.689 30.5488 18.9149C30.5488 19.1408 30.7308 19.3239 30.9552 19.3239Z" fill="white"/>
</g>
</svg>
