<svg width="18" height="17" viewBox="0 0 18 17" fill="none" xmlns="http://www.w3.org/2000/svg">
<path d="M1.29289 1.26797C1.10536 1.43954 1 1.67225 1 1.91489V3.74468C1 3.98733 1.10536 4.22003 1.29289 4.39161C1.48043 4.56318 1.73478 4.65957 2 4.65957H16C16.2652 4.65957 16.5196 4.56318 16.7071 4.39161C16.8946 4.22003 17 3.98733 17 3.74468V1.91489C17 1.67225 16.8946 1.43954 16.7071 1.26797C16.5196 1.09639 16.2652 1 16 1H2C1.73478 1 1.48043 1.09639 1.29289 1.26797Z" stroke="#8B9299" stroke-width="2" stroke-linecap="round" stroke-linejoin="round"/>
<path d="M1.29289 8.58712C1.10536 8.75869 1 8.9914 1 9.23404V14.7234C1 14.966 1.10536 15.1988 1.29289 15.3703C1.48043 15.5419 1.73478 15.6383 2 15.6383H8C8.26522 15.6383 8.51957 15.5419 8.70711 15.3703C8.89464 15.1988 9 14.966 9 14.7234V9.23404C9 8.9914 8.89464 8.75869 8.70711 8.58712C8.51957 8.41554 8.26522 8.31915 8 8.31915H2C1.73478 8.31915 1.48043 8.41554 1.29289 8.58712Z" stroke="#8B9299" stroke-width="2" stroke-linecap="round" stroke-linejoin="round"/>
<path d="M13.2929 8.58712C13.1054 8.75869 13 8.9914 13 9.23404V14.7234C13 14.966 13.1054 15.1988 13.2929 15.3703C13.4804 15.5419 13.7348 15.6383 14 15.6383H16C16.2652 15.6383 16.5196 15.5419 16.7071 15.3703C16.8946 15.1988 17 14.966 17 14.7234V9.23404C17 8.9914 16.8946 8.75869 16.7071 8.58712C16.5196 8.41554 16.2652 8.31915 16 8.31915H14C13.7348 8.31915 13.4804 8.41554 13.2929 8.58712Z" stroke="#8B9299" stroke-width="2" stroke-linecap="round" stroke-linejoin="round"/>
</svg>
