<svg width="30" height="29" viewBox="0 0 30 29" fill="none" xmlns="http://www.w3.org/2000/svg">
<g id="Group">
<path id="Vector" d="M10.6626 28.4375H8.99887C8.83169 28.4374 8.6672 28.3915 8.52044 28.304C8.37367 28.2165 8.24931 28.0901 8.15872 27.9364C8.06814 27.7827 8.01423 27.6067 8.00192 27.4243C7.9896 27.242 8.01928 27.0591 8.08824 26.8926L12.117 17.1685L6.06762 17.0215L3.86137 19.9452C3.44074 20.5235 3.10512 20.7812 2.24887 20.7812H1.12887C0.951539 20.7875 0.775446 20.7469 0.615513 20.6629C0.45558 20.5789 0.316521 20.4539 0.210119 20.2986C0.0613693 20.0792 -0.0848806 19.7073 0.0576194 19.1769L1.29637 14.3233C1.30574 14.2871 1.31699 14.2509 1.32949 14.2153C1.33012 14.2119 1.33012 14.2085 1.32949 14.2051C1.31659 14.1696 1.30553 14.1333 1.29637 14.0964L0.0563694 9.21211C-0.0780056 8.69189 0.0688694 8.32822 0.216369 8.11426C0.315417 7.97051 0.44392 7.85419 0.591547 7.77464C0.739174 7.69509 0.901807 7.65454 1.06637 7.65625H2.24887C2.88824 7.65625 3.50887 7.97002 3.87387 8.47656L6.03449 11.3511L12.117 11.2526L8.08949 1.54561C8.02044 1.37912 7.99064 1.19635 8.00283 1.01402C8.01501 0.831685 8.06879 0.655601 8.15924 0.501864C8.2497 0.348126 8.37394 0.22164 8.52061 0.133969C8.66729 0.0462975 8.83172 0.000237473 8.99887 0H10.6807C10.9154 0.0051573 11.1459 0.0680599 11.3553 0.184037C11.5647 0.300014 11.7475 0.466086 11.8901 0.669922L19.7057 11.0605L23.3164 10.9566C23.5807 10.9409 24.3132 10.9354 24.4826 10.9354C27.9364 10.9375 29.9989 12.1639 29.9989 14.2188C29.9989 14.8654 29.7626 16.0645 28.182 16.8273C27.2489 17.2785 26.0039 17.5068 24.4814 17.5068C24.3139 17.5068 23.5832 17.5014 23.3151 17.4856L19.7051 17.3804L11.8701 27.771C11.7274 27.9739 11.5447 28.1392 11.3357 28.2546C11.1267 28.3699 10.8967 28.4324 10.6626 28.4375Z" fill="#E0AD25"/>
</g>
</svg>
