<svg width="33" height="33" viewBox="0 0 33 33" fill="none" xmlns="http://www.w3.org/2000/svg">
<rect width="33" height="33" rx="5.73913" fill="#E0AD25"/>
<g clip-path="url(#clip0_7771_6747)">
<path d="M12.0469 15.9805C9.28449 15.9805 7.03711 18.2278 7.03711 20.9902C7.03711 23.7526 9.28449 26 12.0469 26C14.8093 26 17.0566 23.7526 17.0566 20.9902C17.0566 18.2278 14.8093 15.9805 12.0469 15.9805ZM14.2588 20.3819L11.6612 22.9795C11.5525 23.0882 11.41 23.1426 11.2676 23.1426C11.1251 23.1426 10.9827 23.0882 10.874 22.9795L9.76071 21.8662C9.54333 21.6489 9.54333 21.2964 9.76071 21.079C9.97806 20.8617 10.3305 20.8617 10.5479 21.079L11.2676 21.7987L13.4717 19.5947C13.689 19.3773 14.0415 19.3773 14.2589 19.5947C14.4762 19.812 14.4762 20.1645 14.2588 20.3819Z" fill="white"/>
<path d="M21.6953 11.8242C21.3879 11.8242 21.1387 11.575 21.1387 11.2676V7H13.1602C12.2394 7 11.4902 7.74913 11.4902 8.66992V14.8928C11.6736 14.8761 11.8592 14.8672 12.0469 14.8672C13.9442 14.8672 15.6427 15.7347 16.7667 17.0938H22.8086C23.116 17.0938 23.3652 17.343 23.3652 17.6504C23.3652 17.9578 23.116 18.207 22.8086 18.207H17.5C17.8557 18.901 18.0744 19.6569 18.1444 20.4336H22.8086C23.116 20.4336 23.3652 20.6828 23.3652 20.9902C23.3652 21.2976 23.116 21.5469 22.8086 21.5469H18.1444C17.9779 23.3852 16.9957 24.9916 15.5633 26H24.293C25.2138 26 25.9629 25.2509 25.9629 24.3301V11.8242H21.6953ZM22.8086 14.8672H14.6445C14.3371 14.8672 14.0879 14.618 14.0879 14.3105C14.0879 14.0031 14.3371 13.7539 14.6445 13.7539H22.8086C23.116 13.7539 23.3652 14.0031 23.3652 14.3105C23.3652 14.618 23.116 14.8672 22.8086 14.8672Z" fill="white"/>
<path d="M22.252 7.32599V10.711H25.6367L22.252 7.32599Z" fill="white"/>
</g>
<defs>
<clipPath id="clip0_7771_6747">
<rect width="19" height="19" fill="white" transform="translate(7 7)"/>
</clipPath>
</defs>
</svg>
