<svg width="34" height="20" viewBox="0 0 34 20" fill="none" xmlns="http://www.w3.org/2000/svg">
<path d="M31.1424 17.2345L22.0598 1.16698L3.81761 1.1592L3.20999 0H0V1.0764L0.594059 1.43411L0 1.74812V17.2329H2.06411C2.06863 16.8627 2.14552 16.5346 2.23146 16.1863C2.63102 14.585 4.22319 14.0819 5.0042 14.0819C5.93598 14.0819 6.91301 14.3053 7.65029 15.4426C7.95938 15.9191 8.1388 16.6768 8.15387 17.2329H24.3078C24.3546 16.5815 24.54 15.8675 24.9215 15.3473C25.6814 14.3131 26.5106 13.9726 27.7078 14.0772C28.151 14.1163 28.9743 14.2616 29.698 15.024C30.5318 15.9035 30.574 17.1361 30.5468 17.2329H31.1424V17.2345Z" fill="#E0AD25"/>
<path d="M2.35356 11.9903H0.00146484V11.5811H22.1547V11.9903H8.15534" fill="white"/>
<path d="M31.142 17.2343C32.0814 17.2343 33.6615 17.2343 33.6615 17.2343C34.0957 16.0502 33.9887 13.5522 33.9887 13.5522C33.951 13.3397 33.7595 13.0632 33.7595 13.0632L33.6735 13.0054L33.6298 12.9757C33.8379 11.7462 33.0493 11.4213 32.796 11.1729C32.7825 11.1588 32.7629 11.1541 32.7478 11.1432C32.5096 10.9714 32.6046 11.0401 32.6 11.037C32.0859 10.6589 31.2099 10.184 30.7184 9.9606C30.4817 9.8528 30.3113 9.69814 30.1439 9.49349L29.274 8.54834C28.3784 7.50789 27.1103 6.21125 27.1103 6.21125C27.7134 6.05191 27.6049 5.92383 27.6049 5.92383C27.1254 3.34615 26.7545 3.26648 26.7545 3.26648C25.6418 2.21041 24.0195 1.49021 24.0195 1.49021C23.7647 1.38554 22.5947 1.22619 22.1936 1.1762C22.1062 1.16526 22.0564 1.16838 22.0564 1.16838" fill="#E0AD25"/>
<path d="M5.12899 18.7389C5.92922 18.7389 6.57793 18.0668 6.57793 17.2376C6.57793 16.4085 5.92922 15.7363 5.12899 15.7363C4.32876 15.7363 3.68005 16.4085 3.68005 17.2376C3.68005 18.0668 4.32876 18.7389 5.12899 18.7389Z" fill="white" stroke="white" stroke-width="0.781042" stroke-miterlimit="10"/>
<path fill-rule="evenodd" clip-rule="evenodd" d="M2.46362 17.2341C2.46362 18.7619 3.65925 19.9992 5.12779 19.9992C6.60236 19.9992 7.7965 18.7025 7.7965 17.1747C7.7965 15.6531 6.60085 14.4736 5.12779 14.4736C3.65774 14.4736 2.46362 15.7125 2.46362 17.2341Z" fill="#E0AD25"/>
<path d="M5.12899 18.7389C5.92922 18.7389 6.57793 18.0668 6.57793 17.2376C6.57793 16.4085 5.92922 15.7363 5.12899 15.7363C4.32876 15.7363 3.68005 16.4085 3.68005 17.2376C3.68005 18.0668 4.32876 18.7389 5.12899 18.7389Z" stroke="white" stroke-width="0.260347" stroke-miterlimit="10"/>
<path d="M5.12923 17.6098C5.32741 17.6098 5.48807 17.4434 5.48807 17.238C5.48807 17.0327 5.32741 16.8662 5.12923 16.8662C4.93105 16.8662 4.77039 17.0327 4.77039 17.238C4.77039 17.4434 4.93105 17.6098 5.12923 17.6098Z" fill="white"/>
<path d="M6.20966 3.77539H2.58203V8.77452H6.20966V3.77539Z" fill="white"/>
<path d="M22.5596 17.2355H22.1631V1.16797L22.442 1.20546L22.5596 1.22423V17.2355Z" fill="white"/>
<path d="M32.9223 12.8326C32.7565 13.1294 32.0885 12.8435 31.4462 12.4592C30.8039 12.0749 30.4873 11.7094 30.522 11.3485C30.5401 11.1626 30.8115 10.986 31.1115 11.0345C31.3618 11.0751 31.6935 11.3329 31.9845 11.5078C32.3855 11.7484 32.8122 12.028 32.9419 12.2952C33.0188 12.4561 32.9841 12.7201 32.9223 12.8326Z" fill="white"/>
<path d="M27.1133 6.47467H22.2448V5.96386H27.1133L27.6078 5.9248C27.6078 5.9248 27.6138 5.9326 27.6153 5.94666C27.6168 5.96072 27.6108 5.97948 27.5927 6.00292C27.5837 6.01385 27.5671 6.02791 27.5475 6.04197C27.5294 6.05447 27.5083 6.06696 27.4917 6.07634C27.4585 6.09352 27.4434 6.09976 27.4314 6.10601C27.3937 6.12476 27.3183 6.15287 27.249 6.17474C27.1781 6.19661 27.1133 6.21223 27.1133 6.21223L27.3665 6.47311H27.1133V6.47467Z" fill="white"/>
<path d="M31.7359 10.4894H22.5613V10.0723H30.9534L31.1358 10.1645L31.3137 10.2566L31.555 10.3878L31.7359 10.4894Z" fill="white"/>
<path d="M30.3701 9.92737H22.7484V6.72949H27.3757L30.3701 9.92737Z" fill="white"/>
<path d="M27.3358 18.6969C28.136 18.6969 28.7847 18.0248 28.7847 17.1957C28.7847 16.3665 28.136 15.6943 27.3358 15.6943C26.5356 15.6943 25.8868 16.3665 25.8868 17.1957C25.8868 18.0248 26.5356 18.6969 27.3358 18.6969Z" fill="white" stroke="white" stroke-width="0.781042" stroke-miterlimit="10"/>
<path fill-rule="evenodd" clip-rule="evenodd" d="M24.6689 17.1931C24.6689 18.7209 25.8646 19.9582 27.3331 19.9582C28.8077 19.9582 30.0018 18.6616 30.0018 17.1337C30.0018 15.6121 28.8062 14.4326 27.3331 14.4326C25.8646 14.4326 24.6689 15.6715 24.6689 17.1931Z" fill="#E0AD25"/>
<path d="M27.3358 18.6969C28.136 18.6969 28.7847 18.0248 28.7847 17.1957C28.7847 16.3665 28.136 15.6943 27.3358 15.6943C26.5356 15.6943 25.8868 16.3665 25.8868 17.1957C25.8868 18.0248 26.5356 18.6969 27.3358 18.6969Z" stroke="white" stroke-width="0.260347" stroke-miterlimit="10"/>
<path d="M27.3366 17.5669C27.5348 17.5669 27.6955 17.4004 27.6955 17.1951C27.6955 16.9897 27.5348 16.8232 27.3366 16.8232C27.1384 16.8232 26.9778 16.9897 26.9778 17.1951C26.9778 17.4004 27.1384 17.5669 27.3366 17.5669Z" fill="white"/>
</svg>
