<svg width="33" height="33" viewBox="0 0 33 33" fill="none" xmlns="http://www.w3.org/2000/svg">
<rect width="33" height="33" rx="5.73913" fill="#E0AD25"/>
<g clip-path="url(#clip0_7771_6766)">
<path d="M25.7647 10.6323V14.9559H26.3823C26.7235 14.9559 27 15.2324 27 15.5735C27 15.9147 26.7235 16.1912 26.3823 16.1912H16.5C16.1589 16.1912 15.8823 15.9147 15.8823 15.5735C15.8823 15.2324 16.1589 14.9559 16.5 14.9559H17.1177V10.6323H16.5C16.1589 10.6323 15.8823 10.3558 15.8823 10.0147V9.08823C15.8823 8.97353 15.9143 8.86109 15.9746 8.76351C16.0349 8.66594 16.1212 8.58709 16.2238 8.53579L21.165 6.06522C21.2507 6.02233 21.3453 6 21.4412 6C21.5371 6 21.6316 6.02233 21.7174 6.06522L26.6586 8.53579C26.7612 8.58709 26.8475 8.66594 26.9078 8.76351C26.9681 8.86109 27 8.97353 27 9.08823V10.0147C27 10.3558 26.7235 10.6323 26.3823 10.6323H25.7647ZM24.5294 10.6323H23.2941V14.9559H24.5294V10.6323ZM22.0588 10.6323H20.8235V14.9559H22.0588V10.6323ZM19.5882 10.6323H18.3529V14.9559H19.5882V10.6323ZM15.8823 21.4412V25.7647H16.5C16.8411 25.7647 17.1177 26.0413 17.1177 26.3824C17.1177 26.7235 16.8411 27 16.5 27H6.61765C6.27653 27 6 26.7235 6 26.3824C6 26.0413 6.27653 25.7647 6.61765 25.7647H7.23531V21.4412H6.61765C6.27653 21.4412 6 21.1647 6 20.8235V19.8971C6 19.7824 6.03193 19.6699 6.09223 19.5724C6.15254 19.4748 6.23882 19.3959 6.34141 19.3446L11.2826 16.8741C11.3684 16.8312 11.4629 16.8088 11.5588 16.8088C11.6547 16.8088 11.7493 16.8312 11.835 16.8741L16.7762 19.3446C16.8788 19.3959 16.9651 19.4748 17.0254 19.5724C17.0857 19.6699 17.1177 19.7824 17.1177 19.8971V20.8235C17.1177 21.1647 16.8411 21.4412 16.5 21.4412H15.8823ZM14.6471 21.4412H13.4118V25.7647H14.6471V21.4412ZM12.1765 21.4412H10.9412V25.7647H12.1765V21.4412ZM9.70588 21.4412H8.47058V25.7647H9.70588V21.4412ZM24.2206 20.7705V21.1323C24.2206 23.0085 22.6997 24.5294 20.8235 24.5294H19.5882C19.2471 24.5294 18.9705 24.2529 18.9705 23.9117C18.9705 23.5706 19.2471 23.2941 19.5882 23.2941H20.8235C22.0174 23.2941 22.9853 22.3262 22.9853 21.1323V20.7705L22.4955 21.2602C22.2544 21.5014 21.8633 21.5014 21.6221 21.2602C21.3809 21.019 21.3809 20.6279 21.6221 20.3868L23.1662 18.8426C23.4074 18.6014 23.7984 18.6014 24.0397 18.8426L25.5838 20.3868C25.825 20.628 25.825 21.0191 25.5838 21.2602C25.3426 21.5014 24.9515 21.5014 24.7103 21.2602L24.2206 20.7705ZM8.77942 12.2295V11.8677C8.77942 9.99152 10.3003 8.47058 12.1765 8.47058H13.4118C13.7529 8.47058 14.0295 8.7471 14.0295 9.08823C14.0295 9.42936 13.7529 9.70589 13.4118 9.70589H12.1765C10.9826 9.70589 10.0147 10.6737 10.0147 11.8677V12.2295L10.5045 11.7397C10.7456 11.4985 11.1367 11.4985 11.3779 11.7397C11.6191 11.9809 11.6191 12.372 11.3779 12.6132L9.83381 14.1573C9.59264 14.3985 9.20156 14.3985 8.96034 14.1573L7.41623 12.6132C7.17502 12.372 7.17502 11.9809 7.41623 11.7397C7.6574 11.4985 8.04848 11.4985 8.2897 11.7397L8.77942 12.2295Z" fill="white"/>
</g>
<defs>
<clipPath id="clip0_7771_6766">
<rect width="21" height="21" fill="white" transform="translate(6 6)"/>
</clipPath>
</defs>
</svg>
