<svg width="167" height="217" viewBox="0 0 167 217" fill="none" xmlns="http://www.w3.org/2000/svg">
<path d="M26.2832 6.35743L26.2832 197.928L45.3555 217L58.0703 204.285L70.7852 217L83.5 204.285L96.2148 217L108.93 204.285L121.645 217L134.359 204.285L147.074 217L166.146 197.928L166.146 31.7786C166.146 14.2533 151.885 1.24681e-06 134.359 2.77892e-06L25.1897 1.23228e-05C25.9155 2.04092 26.2854 4.19131 26.2832 6.35743ZM51.7129 50.8594L140.717 50.8594L140.717 63.5742L51.7129 63.5742L51.7129 50.8594ZM89.8574 114.434L89.8574 101.719L128.002 101.719L128.002 114.434L89.8574 114.434ZM128.002 127.148L128.002 139.863L89.8574 139.863L89.8574 127.148L128.002 127.148ZM89.8574 89.0039L89.8574 76.2891L128.002 76.2891L128.002 89.0039L89.8574 89.0039ZM64.4277 114.434L64.4277 101.719L77.1426 101.719L77.1426 114.434L64.4277 114.434ZM77.1426 127.148L77.1426 139.863L64.4277 139.863L64.4277 127.148L77.1426 127.148ZM64.4277 89.0039L64.4277 76.2891L77.1426 76.2891L77.1426 89.0039L64.4277 89.0039ZM51.7129 152.578L140.717 152.578L140.717 165.293L51.7129 165.293L51.7129 152.578ZM13.5683 50.8594L13.5683 6.35744C13.5683 2.84645 10.7219 1.35876e-05 7.21092 1.38946e-05C3.69993 1.42015e-05 0.853497 2.84645 0.853497 6.35744L0.853501 50.8594L13.5683 50.8594Z" fill="#DFD9C9"/>
</svg>
